<svg width="270" height="270" viewBox="0 0 270 270" fill="none" xmlns="http://www.w3.org/2000/svg">
<path opacity="0.5" d="M67.5958 108.172C79.7268 89.7589 97.9233 100.5 105.505 108.172L110.379 117.108C120.759 122.523 149.317 131.026 180.511 121.711C219.504 110.067 210.568 176.95 180.511 182.907C150.455 188.865 103.068 168.015 90.0706 166.119C77.0732 164.224 52.4321 131.188 67.5958 108.172Z" fill="#EDEDED"/>
<path d="M174.136 107.495H102.212C99.9928 107.495 98.1941 109.294 98.1941 111.512C98.1941 112.738 98.7534 113.896 99.713 114.658L162.451 164.487C167.251 168.299 174.379 165.518 175.33 159.463L182.039 116.736C182.801 111.882 179.049 107.495 174.136 107.495Z" fill="#EDEDED"/>
<rect x="124.189" y="100.996" width="28.1612" height="30.3275" fill="white"/>
<path d="M126.343 83.3987L143.123 89.9697C143.862 90.2593 144.457 90.8306 144.776 91.5581L146.459 95.3948C146.991 96.6072 147.982 97.5591 149.215 98.0418L168.889 105.746C169.741 106.08 170.159 107.039 169.828 107.884L156.312 142.399C155.981 143.244 155.024 143.663 154.171 143.33L109.694 125.912C108.842 125.578 108.425 124.621 108.756 123.775L124.203 84.3298C124.534 83.4847 125.491 83.0651 126.343 83.3987ZM148.106 117.02C147.464 114.094 144.411 112.385 141.581 113.367L122.747 119.908L120.19 120.796L151.633 133.11L151.233 131.283L148.106 117.02ZM134.87 101.651C132.311 100.648 129.422 101.905 128.42 104.464C127.418 107.022 128.685 109.907 131.245 110.909C133.804 111.911 136.693 110.654 137.695 108.096C138.697 105.537 137.429 102.653 134.87 101.651Z" fill="white" stroke="#EDEDED" stroke-width="2"/>
<path d="M165.742 175.461H94.5505C90.1323 175.461 86.5505 171.879 86.5505 167.461V119.35C86.5505 114.931 90.1323 111.35 94.5505 111.35H116.862C119.721 111.35 122.362 112.874 123.791 115.35L126.483 120.013C127.912 122.488 130.553 124.013 133.411 124.013H165.742C170.16 124.013 173.742 127.594 173.742 132.013V167.461C173.742 171.879 170.16 175.461 165.742 175.461Z" fill="white" stroke="#EDEDED" stroke-width="2"/>
<path d="M157.495 127.137C169.362 127.137 179.012 136.875 179.012 148.924C179.012 160.974 169.362 170.711 157.495 170.711C145.629 170.711 135.979 160.974 135.979 148.924C135.979 136.875 145.629 127.137 157.495 127.137Z" fill="white" stroke="#EDEDED" stroke-width="3"/>
<path d="M174.013 164.9L198.112 189" stroke="#EDEDED" stroke-width="4"/>
<path d="M182 172.888L198.112 189" stroke="#EDEDED" stroke-width="10" stroke-linecap="round"/>
</svg>
